<svg xmlns="http://www.w3.org/2000/svg" fill="none" viewBox="0 0 45 45"><path fill="#EB0029" d="M0 0h45v45H0z"/><path fill="#F2F2F2" d="M16.228 8.576v1.644h-3.432v1.776h2.568v1.596h-2.568V17h-2.052V8.576h5.484ZM29.728 17.084a4.43 4.43 0 0 1-2.184-.552 4.197 4.197 0 0 1-1.572-1.536c-.384-.664-.576-1.408-.576-2.232 0-.824.192-1.564.576-2.22a4.197 4.197 0 0 1 1.572-1.536 4.43 4.43 0 0 1 2.184-.552c.792 0 1.516.184 2.172.552.664.368 1.184.88 1.56 1.536.384.656.576 1.396.576 2.22 0 .824-.192 1.568-.576 2.232a4.108 4.108 0 0 1-1.56 1.536 4.363 4.363 0 0 1-2.172.552Zm0-1.872c.672 0 1.208-.224 1.608-.672.408-.448.612-1.04.612-1.776 0-.744-.204-1.336-.612-1.776-.4-.448-.936-.672-1.608-.672-.68 0-1.224.22-1.632.66-.4.44-.6 1.036-.6 1.788 0 .744.2 1.34.6 1.788.408.44.952.66 1.632.66ZM13.9 26.576c.888 0 1.664.176 2.328.528a3.722 3.722 0 0 1 1.536 1.488c.368.632.552 1.364.552 2.196 0 .824-.184 1.556-.552 2.196a3.705 3.705 0 0 1-1.548 1.488c-.664.352-1.436.528-2.316.528h-3.156v-8.424H13.9Zm-.132 6.648c.776 0 1.38-.212 1.812-.636.432-.424.648-1.024.648-1.8s-.216-1.38-.648-1.812c-.432-.432-1.036-.648-1.812-.648h-.972v4.896h.972ZM28.728 35.084a4.43 4.43 0 0 1-2.184-.552 4.197 4.197 0 0 1-1.572-1.536c-.384-.664-.576-1.408-.576-2.232 0-.824.192-1.564.576-2.22a4.197 4.197 0 0 1 1.572-1.536 4.43 4.43 0 0 1 2.184-.552c.792 0 1.516.184 2.172.552.664.368 1.184.88 1.56 1.536.384.656.576 1.396.576 2.22 0 .824-.192 1.568-.576 2.232a4.108 4.108 0 0 1-1.56 1.536 4.363 4.363 0 0 1-2.172.552Zm0-1.872c.672 0 1.208-.224 1.608-.672.408-.448.612-1.04.612-1.776 0-.744-.204-1.336-.612-1.776-.4-.448-.936-.672-1.608-.672-.68 0-1.224.22-1.632.66-.4.44-.6 1.036-.6 1.788 0 .744.2 1.34.6 1.788.408.44.952.66 1.632.66Z"/></svg>
