<svg xmlns="http://www.w3.org/2000/svg" fill="none" viewBox="0 0 30 30"><path fill="url(#a)" d="M8.334 9.546c-.133 1.425-.227 3.947.615 5.02 0 0-.397-2.77 3.154-6.246 1.43-1.399 1.76-3.302 1.261-4.73-.283-.808-.801-1.476-1.251-1.942a.419.419 0 0 1 .32-.71c2.312.103 6.057.745 7.648 4.739.699 1.753.75 3.564.418 5.407-.211 1.176-.961 3.792.75 4.113 1.22.23 1.811-.74 2.076-1.44a.416.416 0 0 1 .699-.13c2.062 2.346 2.238 5.109 1.811 7.488-.825 4.598-5.482 7.945-10.108 7.945-5.78 0-10.38-3.307-11.574-9.293-.48-2.416-.236-7.197 3.49-10.572.277-.254.729-.029.691.351Z"/><path fill="url(#b)" d="M17.838 18.145c-2.13-2.742-1.177-5.87-.654-7.118.07-.164-.117-.318-.265-.218-.916.624-2.793 2.091-3.668 4.156-1.183 2.791-1.099 4.158-.398 5.826.422 1.006-.068 1.22-.314 1.257-.24.037-.46-.122-.635-.289a3.77 3.77 0 0 1-1.041-1.78c-.037-.146-.227-.186-.314-.066-.656.907-.996 2.362-1.013 3.39-.051 3.181 2.576 5.76 5.754 5.76 4.006 0 6.924-4.43 4.622-8.133-.668-1.078-1.296-1.784-2.074-2.785Z"/><defs><radialGradient id="a" cx="0" cy="0" r="1" gradientTransform="matrix(-16.54384 -.0719 .11797 -27.14514 14.582 29.133)" gradientUnits="userSpaceOnUse"><stop offset=".314" stop-color="#FF9800"/><stop offset=".662" stop-color="#FF6D00"/><stop offset=".972" stop-color="#F44336"/></radialGradient><radialGradient id="b" cx="0" cy="0" r="1" gradientTransform="rotate(90.579 1.484 14.012) scale(17.3101 13.0271)" gradientUnits="userSpaceOnUse"><stop offset=".214" stop-color="#FFF176"/><stop offset=".328" stop-color="#FFF27D"/><stop offset=".487" stop-color="#FFF48F"/><stop offset=".672" stop-color="#FFF7AD"/><stop offset=".793" stop-color="#FFF9C4"/><stop offset=".822" stop-color="#FFF8BD" stop-opacity=".804"/><stop offset=".863" stop-color="#FFF6AB" stop-opacity=".529"/><stop offset=".91" stop-color="#FFF38D" stop-opacity=".209"/><stop offset=".941" stop-color="#FFF176" stop-opacity="0"/></radialGradient></defs></svg>
