<svg xmlns="http://www.w3.org/2000/svg" fill="none" viewBox="0 0 82 149"><g clip-path="url(#a)"><path fill="#F2C94C" d="M49.032 21.678v.001l8.357 5.816a.667.667 0 0 0 .664.056l8.957-4.22c.833-.379.763-1.584-.11-1.863l-25.556-8.176a1 1 0 0 0-1.25 1.28l8.793 25.351c.3.865 1.507.905 1.866.064l4-9.057a.667.667 0 0 0-.07-.664l-6.019-8.212a.266.266 0 0 1 .368-.376Z"/></g><path stroke="#F2C94C" stroke-dasharray="8 8" stroke-linejoin="round" stroke-width="3" d="M14.222 147.5c20-11.667 53.6-41.2 28-66-32-31-58.5 37-24 43s89-37.5 46-87.5"/><defs><clipPath id="a"><path fill="#fff" d="M49.9 45.252 27 22.9 49.352 0l22.9 22.352z"/></clipPath></defs></svg>
