<svg xmlns="http://www.w3.org/2000/svg" fill="none" viewBox="0 0 65 65"><g clip-path="url(#a)"><path fill="#fff" d="M39.168 52.519c-10.812 3.935-22.767-1.64-26.702-12.452-3.935-10.812 1.64-22.767 12.452-26.702C35.73 9.43 47.684 15.005 51.62 25.816c3.935 10.813-1.64 22.767-12.452 26.703Zm-1.425-3.916a16.667 16.667 0 1 0-11.4-31.323 16.667 16.667 0 0 0 11.4 31.323ZM34.001 32.23l7.83-2.85 1.425 3.915L31.51 37.57l-4.988-13.704 3.916-1.425L34 32.229Z"/></g><defs><clipPath id="a"><path fill="#fff" d="M0 18 46.985.899l17.1 46.985-46.984 17.1z"/></clipPath></defs></svg>
