<svg xmlns="http://www.w3.org/2000/svg" fill="none" viewBox="0 0 12 12"><path fill="#F2C94C" d="m3.258 7.162-.745 3.225a.499.499 0 0 0 .765.529L6 9.101l2.723 1.815a.5.5 0 0 0 .758-.553l-.914-3.2 2.268-2.041a.5.5 0 0 0-.296-.87l-2.85-.227-1.233-2.73a.499.499 0 0 0-.911 0L4.31 4.024l-2.85.226a.5.5 0 0 0-.31.857l2.107 2.054Zm1.427-2.163a.499.499 0 0 0 .416-.293L6 2.714l.9 1.99a.5.5 0 0 0 .416.293l1.986.158-1.636 1.472a.501.501 0 0 0-.146.509l.626 2.192-1.868-1.245a.497.497 0 0 0-.554 0L3.772 9.386l.525-2.273a.5.5 0 0 0-.138-.47l-1.52-1.481 2.046-.163Z"/></svg>
