<svg xmlns="http://www.w3.org/2000/svg" fill="none" viewBox="0 0 152 45"><path fill="#EB0029" d="M0 0h45v45H0z"/><path fill="#F2F2F2" d="M16.228 8.576v1.644h-3.432v1.776h2.568v1.596h-2.568V17h-2.052V8.576h5.484ZM29.728 17.084a4.43 4.43 0 0 1-2.184-.552 4.197 4.197 0 0 1-1.572-1.536c-.384-.664-.576-1.408-.576-2.232 0-.824.192-1.564.576-2.22a4.197 4.197 0 0 1 1.572-1.536 4.43 4.43 0 0 1 2.184-.552c.792 0 1.516.184 2.172.552.664.368 1.184.88 1.56 1.536.384.656.576 1.396.576 2.22 0 .824-.192 1.568-.576 2.232a4.108 4.108 0 0 1-1.56 1.536 4.363 4.363 0 0 1-2.172.552Zm0-1.872c.672 0 1.208-.224 1.608-.672.408-.448.612-1.04.612-1.776 0-.744-.204-1.336-.612-1.776-.4-.448-.936-.672-1.608-.672-.68 0-1.224.22-1.632.66-.4.44-.6 1.036-.6 1.788 0 .744.2 1.34.6 1.788.408.44.952.66 1.632.66ZM13.9 26.576c.888 0 1.664.176 2.328.528a3.722 3.722 0 0 1 1.536 1.488c.368.632.552 1.364.552 2.196 0 .824-.184 1.556-.552 2.196a3.705 3.705 0 0 1-1.548 1.488c-.664.352-1.436.528-2.316.528h-3.156v-8.424H13.9Zm-.132 6.648c.776 0 1.38-.212 1.812-.636.432-.424.648-1.024.648-1.8s-.216-1.38-.648-1.812c-.432-.432-1.036-.648-1.812-.648h-.972v4.896h.972ZM28.728 35.084a4.43 4.43 0 0 1-2.184-.552 4.197 4.197 0 0 1-1.572-1.536c-.384-.664-.576-1.408-.576-2.232 0-.824.192-1.564.576-2.22a4.197 4.197 0 0 1 1.572-1.536 4.43 4.43 0 0 1 2.184-.552c.792 0 1.516.184 2.172.552.664.368 1.184.88 1.56 1.536.384.656.576 1.396.576 2.22 0 .824-.192 1.568-.576 2.232a4.108 4.108 0 0 1-1.56 1.536 4.363 4.363 0 0 1-2.172.552Zm0-1.872c.672 0 1.208-.224 1.608-.672.408-.448.612-1.04.612-1.776 0-.744-.204-1.336-.612-1.776-.4-.448-.936-.672-1.608-.672-.68 0-1.224.22-1.632.66-.4.44-.6 1.036-.6 1.788 0 .744.2 1.34.6 1.788.408.44.952.66 1.632.66Z"/><path fill="#000" d="M76 15.248v2.712h-6.984v4.296h5.352v2.664h-5.352V32h-3.36V15.248H76Zm8.287 16.968c-1.28 0-2.432-.28-3.456-.84a6.301 6.301 0 0 1-2.424-2.424c-.576-1.04-.864-2.24-.864-3.6 0-1.36.296-2.56.888-3.6a6.253 6.253 0 0 1 2.472-2.4c1.04-.576 2.2-.864 3.48-.864 1.28 0 2.44.288 3.48.864a6.091 6.091 0 0 1 2.448 2.4c.608 1.04.912 2.24.912 3.6 0 1.36-.312 2.56-.936 3.6a6.377 6.377 0 0 1-2.496 2.424c-1.04.56-2.208.84-3.504.84Zm0-2.928c.608 0 1.176-.144 1.704-.432.544-.304.976-.752 1.296-1.344.32-.592.48-1.312.48-2.16 0-1.264-.336-2.232-1.008-2.904-.656-.688-1.464-1.032-2.424-1.032s-1.768.344-2.424 1.032c-.64.672-.96 1.64-.96 2.904s.312 2.24.936 2.928c.64.672 1.44 1.008 2.4 1.008Zm15.304 2.928c-1.28 0-2.432-.28-3.456-.84a6.301 6.301 0 0 1-2.424-2.424c-.576-1.04-.864-2.24-.864-3.6 0-1.36.296-2.56.888-3.6a6.253 6.253 0 0 1 2.472-2.4c1.04-.576 2.2-.864 3.48-.864 1.28 0 2.44.288 3.48.864a6.091 6.091 0 0 1 2.448 2.4c.608 1.04.912 2.24.912 3.6 0 1.36-.312 2.56-.936 3.6a6.377 6.377 0 0 1-2.496 2.424c-1.04.56-2.208.84-3.504.84Zm0-2.928c.608 0 1.176-.144 1.704-.432.544-.304.976-.752 1.296-1.344.32-.592.48-1.312.48-2.16 0-1.264-.336-2.232-1.008-2.904-.656-.688-1.464-1.032-2.424-1.032s-1.768.344-2.424 1.032c-.64.672-.96 1.64-.96 2.904s.312 2.24.936 2.928c.64.672 1.44 1.008 2.4 1.008Zm8.537-3.984c0-1.344.264-2.536.792-3.576.544-1.04 1.28-1.84 2.208-2.4.928-.56 1.96-.84 3.096-.84a5.55 5.55 0 0 1 2.472.576c.784.368 1.408.864 1.872 1.488V14.24h3.408V32h-3.408v-1.968c-.416.656-1 1.184-1.752 1.584-.752.4-1.624.6-2.616.6a5.71 5.71 0 0 1-3.072-.864c-.928-.576-1.664-1.384-2.208-2.424-.528-1.056-.792-2.264-.792-3.624Zm10.464.048c0-.816-.16-1.512-.48-2.088-.32-.592-.752-1.04-1.296-1.344a3.397 3.397 0 0 0-1.752-.48c-.624 0-1.2.152-1.728.456-.528.304-.96.752-1.296 1.344-.32.576-.48 1.264-.48 2.064s.16 1.504.48 2.112c.336.592.768 1.048 1.296 1.368.544.32 1.12.48 1.728.48.624 0 1.208-.152 1.752-.456.544-.32.976-.768 1.296-1.344.32-.592.48-1.296.48-2.112Zm19.026-.288c0 .48-.032.912-.096 1.296h-9.72c.08.96.416 1.712 1.008 2.256.592.544 1.32.816 2.184.816 1.248 0 2.136-.536 2.664-1.608h3.624c-.384 1.28-1.12 2.336-2.208 3.168-1.088.816-2.424 1.224-4.008 1.224-1.28 0-2.432-.28-3.456-.84a6.182 6.182 0 0 1-2.376-2.424c-.56-1.04-.84-2.24-.84-3.6 0-1.376.28-2.584.84-3.624a5.861 5.861 0 0 1 2.352-2.4c1.008-.56 2.168-.84 3.48-.84 1.264 0 2.392.272 3.384.816a5.63 5.63 0 0 1 2.328 2.328c.56.992.84 2.136.84 3.432Zm-3.48-.96c-.016-.864-.328-1.552-.936-2.064-.608-.528-1.352-.792-2.232-.792-.832 0-1.536.256-2.112.768-.56.496-.904 1.192-1.032 2.088h6.312Zm9.292-9.864V32h-3.36V14.24h3.36Zm5.024 2.88c-.592 0-1.088-.184-1.488-.552a1.925 1.925 0 0 1-.576-1.416c0-.56.192-1.024.576-1.392.4-.384.896-.576 1.488-.576s1.08.192 1.464.576c.4.368.6.832.6 1.392 0 .56-.2 1.032-.6 1.416-.384.368-.872.552-1.464.552Zm1.656 1.584V32h-3.36V18.704h3.36Z"/></svg>
