<svg xmlns="http://www.w3.org/2000/svg" fill="none" viewBox="0 0 436 508"><rect width="436" height="508" fill="#010F1C" rx="30"/><path fill="#FEE9DE" d="m74.32 65.52-5.68 26.72c2.027-.16 3.893-.853 5.6-2.08 1.707-1.28 3.173-2.853 4.4-4.72a23.668 23.668 0 0 0 2.96-6.32c.693-2.347 1.04-4.64 1.04-6.88 0-1.387-.187-2.72-.56-4a7.84 7.84 0 0 0-1.76-3.36c-.8-.96-1.947-1.733-3.44-2.32-1.44-.587-3.28-.88-5.52-.88-2.613 0-5.093.427-7.44 1.28-2.347.853-4.4 2.107-6.16 3.76-1.76 1.6-3.173 3.627-4.24 6.08-1.013 2.4-1.52 5.147-1.52 8.24 0 1.013.027 1.84.08 2.48.107.587.213 1.093.32 1.52.107.373.213.667.32.88.16.213.293.427.4.64-2.667 0-4.773-.533-6.32-1.6-1.493-1.12-2.24-3.04-2.24-5.76 0-2.827.827-5.52 2.48-8.08 1.653-2.56 3.813-4.8 6.48-6.72 2.72-1.973 5.787-3.52 9.2-4.64C66.187 58.587 69.68 58 73.2 58c3.093 0 5.787.453 8.08 1.36 2.293.853 4.187 2 5.68 3.44 1.547 1.44 2.693 3.12 3.44 5.04a16.41 16.41 0 0 1 1.12 6c0 2.507-.533 5.04-1.6 7.6-1.067 2.507-2.587 4.8-4.56 6.88-1.973 2.027-4.4 3.68-7.28 4.96-2.88 1.28-6.107 1.92-9.68 1.92H68L63.12 118H51.6l10.88-50.88 11.84-1.6Zm22.205 1.84c0-1.76.613-3.253 1.84-4.48 1.227-1.28 2.72-1.92 4.48-1.92 1.76 0 3.253.64 4.48 1.92 1.28 1.227 1.92 2.72 1.92 4.48 0 1.76-.64 3.253-1.92 4.48-1.227 1.227-2.72 1.84-4.48 1.84-1.76 0-3.253-.613-4.48-1.84-1.227-1.227-1.84-2.72-1.84-4.48Zm9.92 10.64-5.76 27.2c-.213.907-.32 1.76-.32 2.56 0 1.12.267 1.893.8 2.32.533.427 1.36.64 2.48.64.747 0 1.28-.053 1.6-.16.373-.107.693-.213.96-.32-.107 1.44-.427 2.667-.96 3.68-.533 1.013-1.2 1.867-2 2.56-.8.693-1.707 1.2-2.72 1.52a10.3 10.3 0 0 1-3.12.48c-2.4 0-4.427-.747-6.08-2.24-1.653-1.547-2.48-4-2.48-7.36 0-1.44.213-3.173.64-5.2L94.925 78h11.52Zm24.24 32.72c-.533-.053-.933-.24-1.2-.56a1.974 1.974 0 0 1-.32-1.12c0-.747.373-1.493 1.12-2.24.747-.8 1.867-1.2 3.36-1.2 1.227 0 2.107.373 2.64 1.12.587.747.88 1.653.88 2.72 0 .907-.213 1.867-.64 2.88-.427 1.013-1.067 1.947-1.92 2.8-.853.853-1.893 1.547-3.12 2.08-1.173.533-2.533.8-4.08.8h-21.2l20.4-35.68h-4.48c-1.227 0-2.267.08-3.12.24-.853.107-1.28.453-1.28 1.04 0 .107.027.187.08.24.107 0 .213.053.32.16.16.053.267.187.32.4.107.16.16.48.16.96 0 1.493-.453 2.587-1.36 3.28-.907.64-1.893.96-2.96.96-.907 0-1.76-.293-2.56-.88-.747-.587-1.12-1.467-1.12-2.64 0-.8.213-1.68.64-2.64a8.755 8.755 0 0 1 1.84-2.64c.8-.8 1.76-1.467 2.88-2 1.173-.533 2.48-.8 3.92-.8h20.56l-19.6 33.84c.693.053 1.6.16 2.72.32 1.173.107 2.293.16 3.36.16.96 0 1.787-.107 2.48-.32.747-.213 1.173-.64 1.28-1.28Zm34.218 0c-.534-.053-.934-.24-1.2-.56a1.966 1.966 0 0 1-.32-1.12c0-.747.373-1.493 1.12-2.24.746-.8 1.866-1.2 3.36-1.2 1.226 0 2.106.373 2.64 1.12.586.747.88 1.653.88 2.72 0 .907-.214 1.867-.64 2.88-.427 1.013-1.067 1.947-1.92 2.8-.854.853-1.894 1.547-3.12 2.08-1.174.533-2.534.8-4.08.8h-21.2l20.4-35.68h-4.48c-1.227 0-2.267.08-3.12.24-.854.107-1.28.453-1.28 1.04 0 .107.026.187.08.24.106 0 .213.053.32.16.16.053.266.187.32.4.106.16.16.48.16.96 0 1.493-.454 2.587-1.36 3.28-.907.64-1.894.96-2.96.96-.907 0-1.76-.293-2.56-.88-.747-.587-1.12-1.467-1.12-2.64 0-.8.213-1.68.64-2.64a8.737 8.737 0 0 1 1.84-2.64c.8-.8 1.76-1.467 2.88-2 1.173-.533 2.48-.8 3.92-.8h20.56l-19.6 33.84c.693.053 1.6.16 2.72.32 1.173.107 2.293.16 3.36.16.96 0 1.786-.107 2.48-.32.746-.213 1.173-.64 1.28-1.28ZM213.041 78l-5.76 27.2c-.213.907-.32 1.76-.32 2.56 0 1.12.267 1.893.8 2.32.534.427 1.36.64 2.48.64.694 0 1.28-.107 1.76-.32-.533 1.387-1.066 2.587-1.6 3.6-.48 1.013-1.013 1.867-1.6 2.56a5.615 5.615 0 0 1-2.08 1.44c-.746.32-1.653.48-2.72.48-2.186 0-3.973-.64-5.36-1.92-1.333-1.333-2.16-3.173-2.48-5.52a23.004 23.004 0 0 1-2.08 2.72c-.8.907-1.706 1.707-2.72 2.4a13.058 13.058 0 0 1-3.2 1.68c-1.173.427-2.48.64-3.92.64-1.386 0-2.72-.213-4-.64-1.226-.48-2.346-1.227-3.36-2.24-1.013-1.013-1.813-2.32-2.4-3.92-.586-1.653-.88-3.68-.88-6.08 0-1.813.187-3.76.56-5.84.374-2.08.934-4.16 1.68-6.24.747-2.08 1.68-4.08 2.8-6 1.12-1.92 2.454-3.6 4-5.04 1.547-1.493 3.254-2.667 5.12-3.52 1.92-.907 4.054-1.36 6.4-1.36.64 0 1.307.053 2 .16.747.053 1.414.24 2 .56a3.72 3.72 0 0 1 1.6 1.28c.48.533.8 1.253.96 2.16l.8-3.76h11.52Zm-16.4 4.56c-1.706 0-3.253.8-4.64 2.4-1.386 1.547-2.56 3.467-3.52 5.76-.96 2.24-1.706 4.64-2.24 7.2-.533 2.507-.8 4.693-.8 6.56 0 1.547.134 2.747.4 3.6.32.8.667 1.413 1.04 1.84.427.373.854.613 1.28.72.48.053.907.08 1.28.08.587 0 1.2-.133 1.84-.4a7.803 7.803 0 0 0 2-1.36c.64-.587 1.2-1.307 1.68-2.16.48-.907.854-1.947 1.12-3.12l3.84-18.08c0-.213-.08-.48-.24-.8a2.815 2.815 0 0 0-.56-1.04c-.213-.32-.533-.587-.96-.8-.373-.267-.88-.4-1.52-.4Zm53.518 14.88c-1.44 0-2.613.267-3.52.8-.906.48-1.626 1.093-2.16 1.84a6.989 6.989 0 0 0-1.12 2.48c-.16.853-.24 1.68-.24 2.48 0 1.547.187 2.8.56 3.76.427.907.96 1.6 1.6 2.08.694.48 1.44.8 2.24.96.854.16 1.68.24 2.48.24 1.6 0 3.014-.4 4.24-1.2 1.28-.8 2.374-1.84 3.28-3.12.907-1.333 1.6-2.853 2.08-4.56.48-1.707.72-3.44.72-5.2 0-1.6-.213-3.147-.64-4.64a11.47 11.47 0 0 0-1.92-4.08 10.183 10.183 0 0 0-3.28-3.12c-1.333-.853-2.933-1.387-4.8-1.6 2.24-.64 4.214-1.52 5.92-2.64 1.707-1.12 3.12-2.347 4.24-3.68 1.174-1.387 2.054-2.827 2.64-4.32.587-1.547.88-3.013.88-4.4 0-1.867-.506-3.44-1.52-4.72-1.013-1.28-2.533-1.92-4.56-1.92-1.92 0-3.466.507-4.64 1.52-1.12.96-1.68 2.373-1.68 4.24 0 1.067.214 2.213.64 3.44.48 1.173 1.28 1.92 2.4 2.24-1.013.907-2.053 1.6-3.12 2.08-1.013.427-2 .64-2.96.64-1.6 0-2.96-.587-4.08-1.76s-1.68-2.853-1.68-5.04c0-1.813.427-3.467 1.28-4.96.854-1.493 2.027-2.773 3.52-3.84 1.494-1.067 3.227-1.893 5.2-2.48 2.027-.587 4.214-.88 6.56-.88 2.454 0 4.614.32 6.48.96 1.867.64 3.414 1.493 4.64 2.56a10.69 10.69 0 0 1 2.8 3.76c.64 1.387.96 2.853.96 4.4 0 2.667-.906 5.36-2.72 8.08-1.813 2.667-4.56 4.933-8.24 6.8 3.52 1.227 6.08 3.12 7.68 5.68 1.6 2.56 2.4 5.333 2.4 8.32 0 2.347-.533 4.693-1.6 7.04-1.066 2.347-2.586 4.48-4.56 6.4-1.973 1.867-4.346 3.413-7.12 4.64-2.773 1.173-5.866 1.76-9.28 1.76-1.173 0-2.666-.133-4.48-.4-1.76-.267-3.493-.853-5.2-1.76-1.706-.96-3.173-2.347-4.4-4.16-1.226-1.813-1.84-4.267-1.84-7.36 0-3.36.8-6.107 2.4-8.24 1.654-2.133 4.08-3.2 7.28-3.2 1.494 0 2.827.293 4 .88 1.174.587 1.92 1.653 2.24 3.2Z"/></svg>