<svg xmlns="http://www.w3.org/2000/svg" fill="none" viewBox="0 0 436 508"><rect width="436" height="508" fill="#010F1C" rx="30"/><path fill="#FEE9DE" d="M63.04 118H51.52l11.6-54.32c-3.52 1.44-6.267 3.627-8.24 6.56-1.973 2.933-2.96 6.533-2.96 10.8 0 .96.053 1.76.16 2.4.107.64.213 1.173.32 1.6.107.373.213.693.32.96.16.213.267.4.32.56-2.667 0-4.773-.533-6.32-1.6-1.493-1.12-2.24-3.04-2.24-5.76 0-2.827.827-5.52 2.48-8.08 1.707-2.56 3.893-4.8 6.56-6.72 2.667-1.973 5.653-3.52 8.96-4.64 3.36-1.173 6.693-1.76 10-1.76.587 0 1.147.027 1.68.08.533 0 1.067.027 1.6.08L63.04 118Zm32.584-27.6c.426-.907.746-1.893.96-2.96.266-1.067.4-1.947.4-2.64 0-1.973-.747-2.96-2.24-2.96-1.387 0-2.72.8-4 2.4-1.28 1.6-2.4 3.573-3.36 5.92a45.829 45.829 0 0 0-2.32 7.52c-.587 2.667-.88 5.093-.88 7.28 0 2.72.533 4.533 1.6 5.44 1.066.907 2.56 1.36 4.48 1.36 1.6 0 3.04-.213 4.32-.64 1.28-.427 2.48-.987 3.6-1.68 1.12-.747 2.186-1.6 3.2-2.56a88.99 88.99 0 0 0 3.04-3.2h2.72a45.794 45.794 0 0 1-3.84 5.44 29.223 29.223 0 0 1-4.88 4.72 24.436 24.436 0 0 1-6 3.36c-2.187.853-4.614 1.28-7.28 1.28-3.787 0-6.827-.987-9.12-2.96-2.24-1.973-3.36-5.227-3.36-9.76 0-1.547.16-3.307.48-5.28.32-1.973.826-4 1.52-6.08a38.11 38.11 0 0 1 2.64-6.08 24.202 24.202 0 0 1 4.08-5.44c1.6-1.6 3.44-2.88 5.52-3.84 2.133-.96 4.56-1.44 7.28-1.44 1.76 0 3.2.213 4.32.64 1.173.373 2.08.907 2.72 1.6a5.078 5.078 0 0 1 1.44 2.24c.266.853.4 1.707.4 2.56 0 1.973-.427 3.6-1.28 4.88-.8 1.227-1.787 1.84-2.96 1.84-.427 0-.96-.08-1.6-.24-.587-.16-1.12-.4-1.6-.72Zm19.663 11.44-.16 1.28v1.2c0 .8.053 1.6.16 2.4.16.747.427 1.44.8 2.08a4.15 4.15 0 0 0 1.52 1.52c.64.373 1.467.56 2.48.56 1.547 0 3.173-.427 4.88-1.28 1.76-.853 3.28-1.84 4.56-2.96-.427 2.293-1.093 4.213-2 5.76-.853 1.493-1.893 2.693-3.12 3.6a11.475 11.475 0 0 1-4.08 1.92c-1.493.373-3.04.56-4.64.56-3.733 0-6.747-.987-9.04-2.96-2.24-1.973-3.36-5.227-3.36-9.76 0-1.547.16-3.307.48-5.28.32-1.973.8-4 1.44-6.08.693-2.08 1.6-4.107 2.72-6.08a24.202 24.202 0 0 1 4.08-5.44c1.6-1.6 3.467-2.88 5.6-3.84 2.133-.96 4.56-1.44 7.28-1.44 1.76 0 3.2.213 4.32.64 1.173.427 2.08 1.013 2.72 1.76.693.693 1.147 1.493 1.36 2.4.267.907.4 1.867.4 2.88 0 2.293-.507 4.427-1.52 6.4-1.013 1.92-2.373 3.627-4.08 5.12-1.707 1.44-3.68 2.613-5.92 3.52a23.035 23.035 0 0 1-6.88 1.52Zm12.24-16.72c0-1.013-.16-1.813-.48-2.4-.267-.587-.773-.88-1.52-.88-1.013 0-2 .507-2.96 1.52-.96.96-1.867 2.213-2.72 3.76-.853 1.547-1.627 3.28-2.32 5.2a48.77 48.77 0 0 0-1.68 5.68 9.884 9.884 0 0 0 4.4-1.2 13.329 13.329 0 0 0 3.76-2.88 14.227 14.227 0 0 0 2.56-4c.64-1.547.96-3.147.96-4.8Zm68.424 19.28c-1.066 2.4-2.453 4.533-4.16 6.4a27.733 27.733 0 0 1-5.68 4.64 25.077 25.077 0 0 1-6.72 2.88c-2.4.64-4.826.96-7.28.96-5.226 0-9.28-1.547-12.16-4.64-2.88-3.147-4.32-8.133-4.32-14.96 0-2.4.187-5.093.56-8.08a62.19 62.19 0 0 1 2-9.12 56.654 56.654 0 0 1 3.52-9.04c1.44-2.933 3.2-5.547 5.28-7.84a24.596 24.596 0 0 1 7.28-5.52c2.827-1.387 6.027-2.08 9.6-2.08 1.76 0 3.44.213 5.04.64 1.6.373 2.987.987 4.16 1.84 1.174.853 2.107 1.973 2.8 3.36.694 1.387 1.04 3.067 1.04 5.04 0 2.027-.426 3.733-1.28 5.12-.853 1.387-2.293 2.08-4.32 2.08-.64 0-1.386-.107-2.24-.32-.8-.267-1.573-.853-2.32-1.76.96-.48 1.814-1.44 2.56-2.88.747-1.493 1.12-2.96 1.12-4.4 0-1.333-.373-2.48-1.12-3.44-.746-1.013-1.893-1.52-3.44-1.52-1.546 0-3.04.56-4.48 1.68-1.44 1.067-2.8 2.533-4.08 4.4-1.226 1.813-2.373 3.973-3.44 6.48a64.443 64.443 0 0 0-2.64 7.84 71.22 71.22 0 0 0-1.76 8.4 64.812 64.812 0 0 0-.56 8.32c0 1.92.134 3.68.4 5.28.267 1.6.747 2.987 1.44 4.16a7.09 7.09 0 0 0 2.88 2.72c1.28.64 2.88.96 4.8.96 3.04 0 5.947-.747 8.72-2.24a21.423 21.423 0 0 0 6.96-6.16l1.84.8ZM210.898 78l-1.12 5.04c1.547-1.493 3.147-2.773 4.8-3.84 1.707-1.067 3.36-1.6 4.96-1.6 1.813 0 3.173.613 4.08 1.84.96 1.227 1.44 2.613 1.44 4.16 0 .693-.133 1.387-.4 2.08a5.619 5.619 0 0 1-1.04 1.92c-.48.533-1.093.987-1.84 1.36-.693.32-1.52.48-2.48.48-1.12 0-1.893-.267-2.32-.8a5.4 5.4 0 0 1-.8-1.68c-.16-.64-.32-1.227-.48-1.76-.107-.533-.453-.8-1.04-.8-1.013 0-1.973.293-2.88.88-.907.587-1.893 1.36-2.96 2.32l-6.4 30.4h-11.52l8.48-40h11.52Zm23.918 27.04c0 2.72.48 4.533 1.44 5.44.96.853 2.4 1.28 4.32 1.28 1.6 0 3.04-.213 4.32-.64 1.28-.427 2.48-.987 3.6-1.68a24.05 24.05 0 0 0 3.2-2.56 87.257 87.257 0 0 0 3.04-3.2h2.72a45.794 45.794 0 0 1-3.84 5.44 29.191 29.191 0 0 1-4.88 4.72 24.422 24.422 0 0 1-6 3.36c-2.186.853-4.613 1.28-7.28 1.28-3.786 0-6.826-.987-9.12-2.96-2.24-1.973-3.36-5.227-3.36-9.76 0-1.547.16-3.307.48-5.28.32-1.973.8-4 1.44-6.08.694-2.08 1.6-4.107 2.72-6.08a24.202 24.202 0 0 1 4.08-5.44c1.6-1.6 3.467-2.88 5.6-3.84 2.134-.96 4.56-1.44 7.28-1.44 1.76 0 3.2.213 4.32.64 1.174.427 2.08 1.013 2.72 1.76.694.693 1.147 1.493 1.36 2.4.267.907.4 1.867.4 2.88 0 2.24-.506 4.347-1.52 6.32a17.446 17.446 0 0 1-4.08 5.2c-1.706 1.44-3.68 2.613-5.92 3.52a23.028 23.028 0 0 1-6.88 1.52c-.053.587-.106 1.147-.16 1.68v1.52Zm12.4-19.92c0-1.013-.16-1.813-.48-2.4-.266-.587-.773-.88-1.52-.88-1.013 0-2 .48-2.96 1.44s-1.866 2.213-2.72 3.76c-.853 1.493-1.626 3.2-2.32 5.12a55.718 55.718 0 0 0-1.6 5.84 10.737 10.737 0 0 0 4.4-1.28 13.314 13.314 0 0 0 3.76-2.88 12.895 12.895 0 0 0 2.48-4c.64-1.547.96-3.12.96-4.72ZM293.199 78l-5.84 27.2c-.213.907-.32 1.76-.32 2.56 0 1.12.267 1.893.8 2.32.534.427 1.36.64 2.48.64 1.547 0 2.854-.667 3.92-2 1.12-1.333 1.974-3.013 2.56-5.04h3.36c-1.12 3.253-2.4 5.84-3.84 7.76-1.386 1.867-2.826 3.307-4.32 4.32-1.44.96-2.853 1.573-4.24 1.84-1.386.267-2.613.4-3.68.4-2.186 0-3.973-.587-5.36-1.76-1.333-1.173-2.16-2.907-2.48-5.2a23.004 23.004 0 0 1-2.08 2.72c-.8.907-1.706 1.707-2.72 2.4a13.058 13.058 0 0 1-3.2 1.68c-1.173.427-2.48.64-3.92.64-1.386 0-2.72-.213-4-.64-1.226-.48-2.346-1.227-3.36-2.24-1.013-1.013-1.813-2.32-2.4-3.92-.586-1.653-.88-3.68-.88-6.08 0-1.813.187-3.76.56-5.84.374-2.08.934-4.16 1.68-6.24.747-2.08 1.68-4.08 2.8-6 1.12-1.92 2.454-3.6 4-5.04 1.547-1.493 3.254-2.667 5.12-3.52 1.92-.907 4.054-1.36 6.4-1.36.64 0 1.307.053 2 .16.747.053 1.414.24 2 .56a3.72 3.72 0 0 1 1.6 1.28c.48.533.8 1.253.96 2.16l.8-3.76h11.6Zm-16.48 4.56c-1.706 0-3.253.8-4.64 2.4-1.386 1.547-2.56 3.467-3.52 5.76-.96 2.24-1.706 4.64-2.24 7.2-.533 2.507-.8 4.693-.8 6.56 0 1.547.134 2.747.4 3.6.32.8.667 1.413 1.04 1.84.427.373.854.613 1.28.72.48.053.907.08 1.28.08.587 0 1.2-.133 1.84-.4a7.803 7.803 0 0 0 2-1.36c.64-.587 1.2-1.307 1.68-2.16.48-.907.854-1.947 1.12-3.12l3.84-18.08c0-.213-.08-.48-.24-.8a2.815 2.815 0 0 0-.56-1.04c-.213-.32-.533-.587-.96-.8-.373-.267-.88-.4-1.52-.4Zm62.91 6.48c0-2.72-.96-4.08-2.88-4.08-1.44 0-2.694.72-3.76 2.16-1.067 1.44-1.894 3.173-2.48 5.2l-5.44 25.68h-11.52l5.84-27.6c.16-.64.24-1.307.24-2 0-.907-.187-1.707-.56-2.4-.32-.747-.934-1.12-1.84-1.12-1.547 0-2.88.747-4 2.24-1.067 1.44-1.894 3.173-2.48 5.2l-5.44 25.68h-11.52l8.48-40h11.52l-.88 4.16c1.706-1.92 3.413-3.147 5.12-3.68 1.706-.587 3.253-.88 4.64-.88 2.133 0 3.92.533 5.36 1.6 1.493 1.013 2.453 2.773 2.88 5.28.96-1.493 1.946-2.667 2.96-3.52 1.013-.907 2-1.6 2.96-2.08s1.866-.8 2.72-.96c.906-.16 1.733-.24 2.48-.24 2.56 0 4.666.72 6.32 2.16 1.706 1.387 2.56 3.68 2.56 6.88 0 1.6-.214 3.387-.64 5.36-.374 1.92-.8 3.84-1.28 5.76-.48 1.867-.934 3.653-1.36 5.36-.374 1.653-.56 3.04-.56 4.16 0 1.013.213 1.84.64 2.48.48.587 1.333.88 2.56.88 1.28 0 2.16-.16 2.64-.48-.374 2.88-1.414 4.987-3.12 6.32-1.654 1.28-3.547 1.92-5.68 1.92-1.547 0-2.854-.24-3.92-.72-1.014-.533-1.84-1.227-2.48-2.08a8.777 8.777 0 0 1-1.28-2.88c-.267-1.12-.4-2.24-.4-3.36 0-1.333.186-2.907.56-4.72.373-1.867.773-3.733 1.2-5.6.48-1.867.906-3.68 1.28-5.44.373-1.813.56-3.36.56-4.64Zm74.197-30.96c.054.427.08.88.08 1.36.054.427.08.853.08 1.28 0 1.28-.16 2.48-.48 3.6a7.605 7.605 0 0 1-1.6 2.96c-.693.853-1.626 1.52-2.8 2-1.173.48-2.613.72-4.32.72a26.7 26.7 0 0 1-3.44-.24 87.912 87.912 0 0 1-3.68-.56 99.42 99.42 0 0 0-3.44-.72 44.51 44.51 0 0 0-2.8-.48l-3.2 14.48c1.867-.907 3.627-1.547 5.28-1.92 1.654-.373 3.227-.56 4.72-.56 2.4 0 4.48.453 6.24 1.36 1.814.853 3.28 2.053 4.4 3.6 1.174 1.493 2.027 3.253 2.56 5.28.587 1.973.88 4.08.88 6.32a24.47 24.47 0 0 1-1.36 8.08 19.496 19.496 0 0 1-4.08 7.04c-1.866 2.027-4.266 3.68-7.2 4.96-2.88 1.227-6.346 1.84-10.4 1.84-1.6 0-3.253-.133-4.96-.4a12.385 12.385 0 0 1-4.56-1.68c-1.386-.853-2.533-2.027-3.44-3.52-.853-1.493-1.28-3.493-1.28-6 0-2.08.32-3.84.96-5.28.64-1.493 1.44-2.667 2.4-3.52 1.014-.907 2.134-1.547 3.36-1.92a11.144 11.144 0 0 1 3.68-.64c3.254 0 5.147 1.36 5.68 4.08-2.08.267-3.813.88-5.2 1.84-1.386.907-2.08 2.48-2.08 4.72 0 2.187.614 3.813 1.84 4.88 1.227 1.013 2.774 1.52 4.64 1.52 1.76 0 3.28-.427 4.56-1.28a11.212 11.212 0 0 0 3.28-3.44c.907-1.44 1.574-3.04 2-4.8a22 22 0 0 0 .64-5.2c0-3.52-.826-6.24-2.48-8.16-1.6-1.973-3.76-2.96-6.48-2.96-2.186 0-4.346.507-6.48 1.52-2.08 1.013-3.893 2-5.44 2.96l6.56-31.92c2.827.32 5.36.64 7.6.96 2.294.267 4.56.4 6.8.4 2.027 0 4.08-.187 6.16-.56 2.08-.373 4.347-1.04 6.8-2Z"/></svg>