<svg xmlns="http://www.w3.org/2000/svg" fill="none" viewBox="0 0 436 508"><rect width="436" height="508" fill="#010F1C" rx="30"/><path fill="#FEE9DE" d="M74.32 65.52 70.4 84h.64a8.535 8.535 0 0 0 4.56-1.28 14.371 14.371 0 0 0 3.6-3.36 16.004 16.004 0 0 0 2.32-4.56c.587-1.707.88-3.36.88-4.96a9.55 9.55 0 0 0-.48-3.04 5.737 5.737 0 0 0-1.52-2.64c-.747-.747-1.787-1.333-3.12-1.76-1.28-.48-2.933-.72-4.96-.72-2.773 0-5.387.453-7.84 1.36-2.453.853-4.613 2.133-6.48 3.84-1.813 1.653-3.28 3.68-4.4 6.08-1.067 2.4-1.6 5.12-1.6 8.16 0 .96.053 1.76.16 2.4.107.587.213 1.093.32 1.52.107.373.213.693.32.96.16.213.267.4.32.56-2.667 0-4.773-.533-6.32-1.6-1.493-1.12-2.24-3.04-2.24-5.76 0-2.773.8-5.413 2.4-7.92 1.6-2.56 3.733-4.827 6.4-6.8 2.72-1.973 5.813-3.547 9.28-4.72A33.216 33.216 0 0 1 73.36 58c2.88 0 5.413.373 7.6 1.12 2.187.693 4 1.653 5.44 2.88 1.493 1.173 2.587 2.533 3.28 4.08.747 1.547 1.12 3.147 1.12 4.8 0 2.4-.747 4.88-2.24 7.44-1.493 2.507-3.653 4.56-6.48 6.16 2.187.587 3.653 1.6 4.4 3.04.8 1.387 1.2 3.013 1.2 4.88 0 1.653-.213 3.413-.64 5.28a64.082 64.082 0 0 1-1.36 5.52c-.48 1.76-.933 3.467-1.36 5.12-.373 1.653-.56 3.067-.56 4.24 0 1.333.267 2.48.8 3.44.587.96 1.36 1.627 2.32 2-1.707.48-3.227.827-4.56 1.04-1.28.213-2.4.32-3.36.32-1.28 0-2.347-.16-3.2-.48-.8-.32-1.44-.72-1.92-1.2a4.56 4.56 0 0 1-.88-1.76 7.89 7.89 0 0 1-.24-1.92c0-1.333.213-2.88.64-4.64.48-1.813.96-3.68 1.44-5.6.533-1.92 1.013-3.813 1.44-5.68.48-1.867.72-3.573.72-5.12 0-1.6-.347-2.907-1.04-3.92-.693-1.013-1.92-1.52-3.68-1.52-.427 0-.853.027-1.28.08-.427.053-.907.133-1.44.24L63.12 118H51.6l10.88-50.88 11.84-1.6ZM131.871 78l-5.84 27.2c-.213.907-.32 1.76-.32 2.56 0 1.12.267 1.893.8 2.32.534.427 1.36.64 2.48.64 1.547 0 2.854-.667 3.92-2 1.12-1.333 1.974-3.013 2.56-5.04h3.36c-1.12 3.253-2.4 5.84-3.84 7.76-1.386 1.867-2.826 3.307-4.32 4.32-1.44.96-2.853 1.573-4.24 1.84-1.386.267-2.613.4-3.68.4-2.186 0-3.973-.587-5.36-1.76-1.333-1.173-2.16-2.907-2.48-5.2a23.004 23.004 0 0 1-2.08 2.72c-.8.907-1.706 1.707-2.72 2.4a13.058 13.058 0 0 1-3.2 1.68c-1.173.427-2.48.64-3.92.64-1.386 0-2.72-.213-4-.64-1.226-.48-2.346-1.227-3.36-2.24-1.013-1.013-1.813-2.32-2.4-3.92-.586-1.653-.88-3.68-.88-6.08 0-1.813.187-3.76.56-5.84a38.67 38.67 0 0 1 1.68-6.24c.747-2.08 1.68-4.08 2.8-6 1.12-1.92 2.454-3.6 4-5.04 1.547-1.493 3.254-2.667 5.12-3.52 1.92-.907 4.054-1.36 6.4-1.36.64 0 1.307.053 2 .16.747.053 1.414.24 2 .56a3.72 3.72 0 0 1 1.6 1.28c.48.533.8 1.253.96 2.16l.8-3.76h11.6Zm-16.48 4.56c-1.706 0-3.253.8-4.64 2.4-1.386 1.547-2.56 3.467-3.52 5.76-.96 2.24-1.706 4.64-2.24 7.2-.533 2.507-.8 4.693-.8 6.56 0 1.547.134 2.747.4 3.6.32.8.667 1.413 1.04 1.84.427.373.854.613 1.28.72.48.053.907.08 1.28.08.587 0 1.2-.133 1.84-.4a7.803 7.803 0 0 0 2-1.36c.64-.587 1.2-1.307 1.68-2.16.48-.907.854-1.947 1.12-3.12l3.84-18.08c0-.213-.08-.48-.24-.8a2.815 2.815 0 0 0-.56-1.04c-.213-.32-.533-.587-.96-.8-.373-.267-.88-.4-1.52-.4Zm62.91 6.48c0-2.72-.96-4.08-2.88-4.08-1.44 0-2.694.72-3.76 2.16-1.067 1.44-1.894 3.173-2.48 5.2l-5.44 25.68h-11.52l5.84-27.6c.16-.64.24-1.307.24-2 0-.907-.187-1.707-.56-2.4-.32-.747-.934-1.12-1.84-1.12-1.547 0-2.88.747-4 2.24-1.067 1.44-1.894 3.173-2.48 5.2l-5.44 25.68h-11.52l8.48-40h11.52l-.88 4.16c1.706-1.92 3.413-3.147 5.12-3.68 1.706-.587 3.253-.88 4.64-.88 1.973 0 3.68.48 5.12 1.44 1.493.96 2.506 2.773 3.04 5.44.96-1.493 1.946-2.667 2.96-3.52 1.013-.907 2-1.6 2.96-2.08 1.013-.48 1.946-.8 2.8-.96.906-.16 1.733-.24 2.48-.24 2.56 0 4.666.72 6.32 2.16 1.706 1.387 2.56 3.68 2.56 6.88 0 1.6-.214 3.387-.64 5.36-.374 1.92-.8 3.84-1.28 5.76-.48 1.867-.934 3.653-1.36 5.36-.374 1.653-.56 3.04-.56 4.16 0 1.013.213 1.84.64 2.48.48.587 1.333.88 2.56.88.853 0 1.6-.16 2.24-.48a5.792 5.792 0 0 0 1.76-1.44 11.592 11.592 0 0 0 1.44-2.24c.426-.853.853-1.813 1.28-2.88h3.36c-1.12 3.307-2.32 5.947-3.6 7.92-1.28 1.92-2.587 3.387-3.92 4.4-1.334 1.013-2.64 1.68-3.92 2-1.227.32-2.374.48-3.44.48-1.76 0-3.254-.24-4.48-.72-1.174-.533-2.134-1.227-2.88-2.08a7.671 7.671 0 0 1-1.6-2.88 12.18 12.18 0 0 1-.48-3.36c0-1.333.186-2.907.56-4.72.373-1.867.773-3.733 1.2-5.6.48-1.867.906-3.68 1.28-5.44.373-1.813.56-3.36.56-4.64Zm28.156 16c0 2.72.48 4.533 1.44 5.44.96.853 2.4 1.28 4.32 1.28 1.6 0 3.04-.213 4.32-.64 1.28-.427 2.48-.987 3.6-1.68a24.05 24.05 0 0 0 3.2-2.56 88.115 88.115 0 0 0 3.04-3.2h2.72a45.794 45.794 0 0 1-3.84 5.44 29.23 29.23 0 0 1-4.88 4.72 24.422 24.422 0 0 1-6 3.36c-2.187.853-4.613 1.28-7.28 1.28-3.787 0-6.827-.987-9.12-2.96-2.24-1.973-3.36-5.227-3.36-9.76 0-1.547.16-3.307.48-5.28.32-1.973.8-4 1.44-6.08.693-2.08 1.6-4.107 2.72-6.08a24.202 24.202 0 0 1 4.08-5.44c1.6-1.6 3.467-2.88 5.6-3.84 2.133-.96 4.56-1.44 7.28-1.44 1.76 0 3.2.213 4.32.64 1.173.427 2.08 1.013 2.72 1.76.693.693 1.147 1.493 1.36 2.4.267.907.4 1.867.4 2.88 0 2.24-.507 4.347-1.52 6.32a17.446 17.446 0 0 1-4.08 5.2c-1.707 1.44-3.68 2.613-5.92 3.52a23.035 23.035 0 0 1-6.88 1.52c-.053.587-.107 1.147-.16 1.68v1.52Zm12.4-19.92c0-1.013-.16-1.813-.48-2.4-.267-.587-.773-.88-1.52-.88-1.013 0-2 .48-2.96 1.44s-1.867 2.213-2.72 3.76c-.853 1.493-1.627 3.2-2.32 5.12a55.718 55.718 0 0 0-1.6 5.84 10.741 10.741 0 0 0 4.4-1.28 13.329 13.329 0 0 0 3.76-2.88 12.914 12.914 0 0 0 2.48-4c.64-1.547.96-3.12.96-4.72Zm30.543 3.92c0-2.72-.96-4.08-2.88-4.08-1.44 0-2.693.72-3.76 2.16-1.067 1.44-1.893 3.173-2.48 5.2L234.84 118h-11.52l8.48-40h11.52l-.88 4.16c1.707-1.92 3.387-3.147 5.04-3.68 1.653-.533 3.093-.8 4.32-.8 2.56 0 4.667.72 6.32 2.16 1.707 1.387 2.56 3.68 2.56 6.88 0 1.6-.213 3.387-.64 5.36-.373 1.92-.8 3.84-1.28 5.76a842.26 842.26 0 0 0-1.36 5.36c-.373 1.653-.56 3.04-.56 4.16 0 1.013.213 1.84.64 2.48.48.587 1.333.88 2.56.88 1.28 0 2.16-.16 2.64-.48-.373 2.88-1.413 4.987-3.12 6.32-1.653 1.28-3.547 1.92-5.68 1.92-1.547 0-2.853-.24-3.92-.72-1.013-.533-1.84-1.227-2.48-2.08a8.797 8.797 0 0 1-1.28-2.88c-.267-1.12-.4-2.24-.4-3.36 0-1.333.187-2.907.56-4.72.373-1.867.773-3.733 1.2-5.6.48-1.867.907-3.68 1.28-5.44.373-1.813.56-3.36.56-4.64Zm35.072 7.36c.693-2.187 1.707-4.507 3.04-6.96a209.574 209.574 0 0 0 4.08-7.76 70.165 70.165 0 0 0 3.44-8.32 25.435 25.435 0 0 0 1.52-8.64c0-.8-.107-1.893-.32-3.28a46.025 46.025 0 0 0-.64-3.44c1.173 0 2.293.16 3.36.48 1.067.267 2 .72 2.8 1.36.853.64 1.52 1.52 2 2.64.48 1.067.72 2.4.72 4 0 2.08-.4 4.133-1.2 6.16a40.588 40.588 0 0 1-2.8 6c-1.12 1.92-2.32 3.84-3.6 5.76a68.733 68.733 0 0 0-3.36 5.68h11.68l6.56-30.48 11.84-1.6-6.88 32.08h5.12l-1.6 6.32h-4.88l-4.56 21.6h-11.52l4.56-21.6h-19.36Z"/></svg>