<svg xmlns="http://www.w3.org/2000/svg" fill="none" viewBox="0 0 436 508"><rect width="436" height="508" fill="#010F1C" rx="30"/><path fill="#FEE9DE" d="M83.92 104.4c-1.067 2.4-2.453 4.533-4.16 6.4a27.752 27.752 0 0 1-5.68 4.64 25.077 25.077 0 0 1-6.72 2.88c-2.4.64-4.827.96-7.28.96-5.227 0-9.28-1.547-12.16-4.64-2.88-3.147-4.32-8.133-4.32-14.96 0-2.4.187-5.093.56-8.08a62.06 62.06 0 0 1 2-9.12 56.626 56.626 0 0 1 3.52-9.04c1.44-2.933 3.2-5.547 5.28-7.84a24.592 24.592 0 0 1 7.28-5.52c2.827-1.387 6.027-2.08 9.6-2.08 1.76 0 3.44.213 5.04.64 1.6.373 2.987.987 4.16 1.84 1.173.853 2.107 1.973 2.8 3.36.693 1.387 1.04 3.067 1.04 5.04 0 2.027-.427 3.733-1.28 5.12s-2.293 2.08-4.32 2.08c-.64 0-1.387-.107-2.24-.32-.8-.267-1.573-.853-2.32-1.76.96-.48 1.813-1.44 2.56-2.88.747-1.493 1.12-2.96 1.12-4.4 0-1.333-.373-2.48-1.12-3.44-.747-1.013-1.893-1.52-3.44-1.52s-3.04.56-4.48 1.68c-1.44 1.067-2.8 2.533-4.08 4.4-1.227 1.813-2.373 3.973-3.44 6.48a64.34 64.34 0 0 0-2.64 7.84 71.02 71.02 0 0 0-1.76 8.4 64.758 64.758 0 0 0-.56 8.32c0 1.92.133 3.68.4 5.28s.747 2.987 1.44 4.16a7.081 7.081 0 0 0 2.88 2.72c1.28.64 2.88.96 4.8.96 3.04 0 5.947-.747 8.72-2.24a21.437 21.437 0 0 0 6.96-6.16l1.84.8ZM118.627 78l-5.76 27.2c-.213.907-.32 1.76-.32 2.56 0 1.12.267 1.893.8 2.32.533.427 1.36.64 2.48.64 1.547 0 2.853-.667 3.92-2 1.12-1.333 1.973-3.013 2.56-5.04h3.36c-1.12 3.253-2.4 5.867-3.84 7.84-1.387 1.92-2.827 3.413-4.32 4.48-1.44 1.013-2.853 1.68-4.24 2-1.387.32-2.613.48-3.68.48-2.293 0-4.133-.64-5.52-1.92-1.333-1.28-2.133-3.173-2.4-5.68-1.013 1.653-2.053 2.987-3.12 4-1.013.96-2.027 1.707-3.04 2.24-1.014.533-2 .88-2.96 1.04-.96.213-1.867.32-2.72.32-2.4 0-4.427-.747-6.08-2.24-1.653-1.547-2.48-4-2.48-7.36 0-1.44.213-3.173.64-5.2L87.347 78h11.52l-5.76 27.2c-.16.8-.24 1.547-.24 2.24 0 .907.16 1.68.48 2.32.373.64 1.013.96 1.92.96 1.547 0 2.853-.667 3.92-2 1.067-1.333 1.893-3.013 2.48-5.04l5.44-25.68h11.52Zm21.271-2.96-1.28 6a15.268 15.268 0 0 1 4-2.48c1.546-.64 3.333-.96 5.36-.96 1.333 0 2.586.213 3.76.64a7.046 7.046 0 0 1 3.12 2.16c.906.96 1.6 2.24 2.08 3.84.533 1.6.8 3.6.8 6 0 1.813-.134 3.76-.4 5.84a34.122 34.122 0 0 1-1.28 6.32 32.78 32.78 0 0 1-2.4 6.08 20.577 20.577 0 0 1-3.6 5.12c-1.44 1.44-3.174 2.613-5.2 3.52-1.974.907-4.24 1.36-6.8 1.36-2.027 0-3.574-.293-4.64-.88-1.014-.587-1.734-1.253-2.16-2l-4.16 19.52-12.081 2.88 13.361-62.96h11.52Zm-4.32 36.48c2.08 0 3.84-.773 5.28-2.32 1.44-1.547 2.586-3.413 3.44-5.6a31.279 31.279 0 0 0 1.92-7.04c.373-2.507.56-4.693.56-6.56 0-1.547-.16-2.747-.48-3.6-.267-.907-.614-1.573-1.04-2-.374-.48-.8-.773-1.28-.88a4.963 4.963 0 0 0-1.2-.16c-.907 0-1.867.347-2.88 1.04-1.014.64-1.894 1.6-2.64 2.88l-4.72 22.4c.16.427.48.853.96 1.28.48.373 1.173.56 2.08.56Zm46.061-21.12c.427-.907.747-1.893.96-2.96.267-1.067.4-1.947.4-2.64 0-1.973-.746-2.96-2.24-2.96-1.386 0-2.72.8-4 2.4-1.28 1.6-2.4 3.573-3.36 5.92a45.867 45.867 0 0 0-2.32 7.52c-.586 2.667-.88 5.093-.88 7.28 0 2.72.534 4.533 1.6 5.44 1.067.907 2.56 1.36 4.48 1.36 1.6 0 3.04-.213 4.32-.64 1.28-.427 2.48-.987 3.6-1.68a24.05 24.05 0 0 0 3.2-2.56 87.257 87.257 0 0 0 3.04-3.2h2.72a45.794 45.794 0 0 1-3.84 5.44 29.191 29.191 0 0 1-4.88 4.72 24.422 24.422 0 0 1-6 3.36c-2.186.853-4.613 1.28-7.28 1.28-3.786 0-6.826-.987-9.12-2.96-2.24-1.973-3.36-5.227-3.36-9.76 0-1.547.16-3.307.48-5.28.32-1.973.827-4 1.52-6.08a38.238 38.238 0 0 1 2.64-6.08 24.202 24.202 0 0 1 4.08-5.44c1.6-1.6 3.44-2.88 5.52-3.84 2.134-.96 4.56-1.44 7.28-1.44 1.76 0 3.2.213 4.32.64 1.174.373 2.08.907 2.72 1.6.694.64 1.174 1.387 1.44 2.24.267.853.4 1.707.4 2.56 0 1.973-.426 3.6-1.28 4.88-.8 1.227-1.786 1.84-2.96 1.84-.426 0-.96-.08-1.6-.24-.586-.16-1.12-.4-1.6-.72ZM228.903 78l-5.84 27.2c-.214.907-.32 1.76-.32 2.56 0 1.12.266 1.893.8 2.32.533.427 1.36.64 2.48.64 1.546 0 2.853-.667 3.92-2 1.12-1.333 1.973-3.013 2.56-5.04h3.36c-1.12 3.253-2.4 5.84-3.84 7.76-1.387 1.867-2.827 3.307-4.32 4.32-1.44.96-2.854 1.573-4.24 1.84-1.387.267-2.614.4-3.68.4-2.187 0-3.974-.587-5.36-1.76-1.334-1.173-2.16-2.907-2.48-5.2a23.112 23.112 0 0 1-2.08 2.72 14.61 14.61 0 0 1-2.72 2.4 13.076 13.076 0 0 1-3.2 1.68c-1.174.427-2.48.64-3.92.64-1.387 0-2.72-.213-4-.64-1.227-.48-2.347-1.227-3.36-2.24-1.014-1.013-1.814-2.32-2.4-3.92-.587-1.653-.88-3.68-.88-6.08 0-1.813.186-3.76.56-5.84.373-2.08.933-4.16 1.68-6.24.746-2.08 1.68-4.08 2.8-6 1.12-1.92 2.453-3.6 4-5.04 1.546-1.493 3.253-2.667 5.12-3.52 1.92-.907 4.053-1.36 6.4-1.36.64 0 1.306.053 2 .16.746.053 1.413.24 2 .56.64.267 1.173.693 1.6 1.28.48.533.8 1.253.96 2.16l.8-3.76h11.6Zm-16.48 4.56c-1.707 0-3.254.8-4.64 2.4-1.387 1.547-2.56 3.467-3.52 5.76-.96 2.24-1.707 4.64-2.24 7.2-.534 2.507-.8 4.693-.8 6.56 0 1.547.133 2.747.4 3.6.32.8.666 1.413 1.04 1.84.426.373.853.613 1.28.72.48.053.906.08 1.28.08.586 0 1.2-.133 1.84-.4a7.798 7.798 0 0 0 1.999-1.36c.641-.587 1.201-1.307 1.681-2.16.48-.907.853-1.947 1.12-3.12l3.84-18.08c0-.213-.08-.48-.24-.8a2.844 2.844 0 0 0-.56-1.04c-.214-.32-.534-.587-.96-.8-.374-.267-.88-.4-1.52-.4ZM270.292 78l-16 11.12a10.78 10.78 0 0 1 1.28-.24c.48-.053.933-.08 1.36-.08 2.987 0 5.2.933 6.64 2.8 1.44 1.813 2.16 4 2.16 6.56 0 1.707-.267 3.36-.8 4.96a14.165 14.165 0 0 0-.8 4.64c0 .8.213 1.493.64 2.08.427.587 1.253.88 2.48.88.853 0 1.6-.16 2.24-.48a5.792 5.792 0 0 0 1.76-1.44 11.592 11.592 0 0 0 1.44-2.24c.427-.853.853-1.813 1.28-2.88h3.36c-1.12 3.36-2.347 6.027-3.68 8-1.333 1.973-2.667 3.467-4 4.48-1.333.96-2.613 1.573-3.84 1.84-1.227.32-2.293.48-3.2.48-3.307 0-5.813-.773-7.52-2.32-1.707-1.6-2.56-3.867-2.56-6.8 0-1.867.24-3.6.72-5.2.48-1.653.72-3.333.72-5.04 0-1.173-.213-2.107-.64-2.8-.427-.693-1.173-1.04-2.24-1.04-.907 0-1.84.267-2.8.8-.96.533-2 1.253-3.12 2.16l-4.16 19.76h-11.52l11.6-54.4 11.84-1.6-6 28.16L262.372 78h7.92Zm14.526 23.84-.16 1.28v1.2c0 .8.053 1.6.16 2.4.16.747.427 1.44.8 2.08a4.15 4.15 0 0 0 1.52 1.52c.64.373 1.467.56 2.48.56 1.547 0 3.173-.427 4.88-1.28 1.76-.853 3.28-1.84 4.56-2.96-.427 2.293-1.093 4.213-2 5.76-.853 1.493-1.893 2.693-3.12 3.6a11.475 11.475 0 0 1-4.08 1.92c-1.493.373-3.04.56-4.64.56-3.733 0-6.747-.987-9.04-2.96-2.24-1.973-3.36-5.227-3.36-9.76 0-1.547.16-3.307.48-5.28.32-1.973.8-4 1.44-6.08.693-2.08 1.6-4.107 2.72-6.08a24.202 24.202 0 0 1 4.08-5.44c1.6-1.6 3.467-2.88 5.6-3.84 2.133-.96 4.56-1.44 7.28-1.44 1.76 0 3.2.213 4.32.64 1.173.427 2.08 1.013 2.72 1.76.693.693 1.147 1.493 1.36 2.4.267.907.4 1.867.4 2.88 0 2.293-.507 4.427-1.52 6.4-1.013 1.92-2.373 3.627-4.08 5.12-1.707 1.44-3.68 2.613-5.92 3.52a23.035 23.035 0 0 1-6.88 1.52Zm12.24-16.72c0-1.013-.16-1.813-.48-2.4-.267-.587-.773-.88-1.52-.88-1.013 0-2 .507-2.96 1.52-.96.96-1.867 2.213-2.72 3.76-.853 1.547-1.627 3.28-2.32 5.2a48.77 48.77 0 0 0-1.68 5.68 9.884 9.884 0 0 0 4.4-1.2 13.329 13.329 0 0 0 3.76-2.88 14.227 14.227 0 0 0 2.56-4c.64-1.547.96-3.147.96-4.8Zm41.305 12.32c-1.44 0-2.614.267-3.52.8-.907.48-1.627 1.093-2.16 1.84a6.973 6.973 0 0 0-1.121 2.48c-.159.853-.239 1.68-.239 2.48 0 1.547.186 2.8.56 3.76.426.907.96 1.6 1.6 2.08.693.48 1.44.8 2.24.96.853.16 1.68.24 2.48.24 1.6 0 3.013-.4 4.24-1.2 1.28-.8 2.373-1.84 3.28-3.12.906-1.333 1.6-2.853 2.08-4.56.48-1.707.72-3.44.72-5.2 0-1.6-.214-3.147-.64-4.64a11.505 11.505 0 0 0-1.92-4.08 10.196 10.196 0 0 0-3.281-3.12c-1.333-.853-2.933-1.387-4.799-1.6 2.24-.64 4.213-1.52 5.92-2.64 1.706-1.12 3.12-2.347 4.24-3.68 1.173-1.387 2.053-2.827 2.64-4.32.586-1.547.88-3.013.88-4.4 0-1.867-.507-3.44-1.52-4.72-1.014-1.28-2.534-1.92-4.56-1.92-1.92 0-3.467.507-4.64 1.52-1.12.96-1.68 2.373-1.68 4.24 0 1.067.213 2.213.64 3.44.48 1.173 1.28 1.92 2.4 2.24-1.014.907-2.054 1.6-3.12 2.08-1.014.427-2 .64-2.96.64-1.6 0-2.96-.587-4.08-1.76s-1.68-2.853-1.68-5.04c0-1.813.426-3.467 1.28-4.96.853-1.493 2.026-2.773 3.52-3.84 1.493-1.067 3.226-1.893 5.2-2.48 2.026-.587 4.213-.88 6.56-.88 2.453 0 4.613.32 6.48.96 1.866.64 3.413 1.493 4.64 2.56a10.701 10.701 0 0 1 2.8 3.76c.64 1.387.96 2.853.96 4.4 0 2.667-.907 5.36-2.72 8.08-1.814 2.667-4.56 4.933-8.24 6.8 3.52 1.227 6.08 3.12 7.68 5.68 1.6 2.56 2.4 5.333 2.4 8.32 0 2.347-.534 4.693-1.6 7.04-1.067 2.347-2.587 4.48-4.56 6.4-1.974 1.867-4.347 3.413-7.12 4.64-2.774 1.173-5.867 1.76-9.28 1.76-1.174 0-2.667-.133-4.48-.4-1.76-.267-3.494-.853-5.2-1.76-1.707-.96-3.174-2.347-4.4-4.16-1.227-1.813-1.84-4.267-1.84-7.36 0-3.36.8-6.107 2.4-8.24 1.653-2.133 4.08-3.2 7.279-3.2 1.494 0 2.827.293 4.001.88 1.173.587 1.92 1.653 2.24 3.2Z"/></svg>