<svg xmlns="http://www.w3.org/2000/svg" fill="none" viewBox="0 0 436 508"><rect width="436" height="508" fill="#010F1C" rx="30"/><path fill="#FEE9DE" d="m74.32 65.52-3.76 17.76h.48c1.6 0 3.093-.4 4.48-1.2a13.16 13.16 0 0 0 3.6-3.04 13.678 13.678 0 0 0 2.48-4.16c.64-1.547.96-3.067.96-4.56 0-1.12-.213-2.187-.64-3.2a6.935 6.935 0 0 0-1.84-2.8c-.8-.8-1.867-1.44-3.2-1.92-1.333-.48-2.96-.72-4.88-.72-2.347 0-4.72.4-7.12 1.2-2.347.8-4.48 2-6.4 3.6s-3.493 3.627-4.72 6.08c-1.173 2.4-1.76 5.253-1.76 8.56 0 .96.053 1.76.16 2.4.107.587.213 1.093.32 1.52.107.373.213.693.32.96.16.213.267.4.32.56-2.667 0-4.773-.533-6.32-1.6-1.493-1.12-2.24-3.04-2.24-5.76 0-2.773.8-5.413 2.4-7.92 1.6-2.56 3.733-4.827 6.4-6.8 2.72-1.973 5.813-3.547 9.28-4.72A34.43 34.43 0 0 1 73.6 58c2.933 0 5.467.373 7.6 1.12 2.133.693 3.893 1.627 5.28 2.8 1.44 1.173 2.48 2.533 3.12 4.08a11.078 11.078 0 0 1 1.04 4.72c0 2.4-.693 4.747-2.08 7.04-1.333 2.293-3.307 4.187-5.92 5.68 1.707.32 3.147.907 4.32 1.76 1.227.8 2.213 1.787 2.96 2.96.747 1.12 1.28 2.4 1.6 3.84.373 1.387.56 2.827.56 4.32 0 1.92-.293 4.213-.88 6.88-.533 2.613-1.493 5.12-2.88 7.52-1.333 2.4-3.12 4.453-5.36 6.16-2.24 1.653-5.04 2.48-8.4 2.48-.853 0-1.76-.08-2.72-.24a8.56 8.56 0 0 1-2.56-.88 6.02 6.02 0 0 1-1.92-1.76c-.48-.8-.72-1.813-.72-3.04 0-1.333.347-2.88 1.04-4.64 1.013 1.067 1.92 1.813 2.72 2.24.853.427 1.733.64 2.64.64 1.44 0 2.667-.453 3.68-1.36 1.013-.96 1.84-2.133 2.48-3.52a18.711 18.711 0 0 0 1.36-4.64c.267-1.707.4-3.333.4-4.88 0-1.387-.133-2.693-.4-3.92-.213-1.227-.613-2.293-1.2-3.2a6.07 6.07 0 0 0-2.4-2.24c-.96-.533-2.16-.8-3.6-.8-.32 0-.827.027-1.52.08-.693 0-1.413.053-2.16.16L63.12 118H51.6l10.88-50.88 11.84-1.6ZM132.533 78l-5.76 27.2c-.213.907-.32 1.76-.32 2.56 0 1.12.267 1.893.8 2.32.533.427 1.36.64 2.48.64 1.547 0 2.853-.667 3.92-2 1.12-1.333 1.973-3.013 2.56-5.04h3.36c-1.12 3.253-2.4 5.867-3.84 7.84-1.387 1.92-2.827 3.413-4.32 4.48-1.44 1.013-2.853 1.68-4.24 2-1.387.32-2.613.48-3.68.48-2.293 0-4.133-.64-5.52-1.92-1.333-1.28-2.133-3.173-2.4-5.68-1.013 1.653-2.053 2.987-3.12 4-1.013.96-2.027 1.707-3.04 2.24-1.013.533-2 .88-2.96 1.04-.96.213-1.867.32-2.72.32-2.4 0-4.427-.747-6.08-2.24-1.653-1.547-2.48-4-2.48-7.36 0-1.44.213-3.173.64-5.2l5.44-25.68h11.52l-5.76 27.2c-.16.8-.24 1.547-.24 2.24 0 .907.16 1.68.48 2.32.373.64 1.013.96 1.92.96 1.547 0 2.853-.667 3.92-2 1.067-1.333 1.893-3.013 2.48-5.04l5.44-25.68h11.52Zm20.631 0-1.12 5.04c1.546-1.493 3.146-2.773 4.8-3.84 1.706-1.067 3.36-1.6 4.96-1.6 1.813 0 3.173.613 4.08 1.84.96 1.227 1.44 2.613 1.44 4.16 0 .693-.134 1.387-.4 2.08a5.636 5.636 0 0 1-1.04 1.92c-.48.533-1.094.987-1.84 1.36-.694.32-1.52.48-2.48.48-1.12 0-1.894-.267-2.32-.8a5.378 5.378 0 0 1-.8-1.68c-.16-.64-.32-1.227-.48-1.76-.107-.533-.454-.8-1.04-.8-1.014 0-1.974.293-2.88.88-.907.587-1.894 1.36-2.96 2.32l-6.4 30.4h-11.52l8.48-40h11.52Zm51.518 0-7.92 37.12c2.453-.853 4.453-2.107 6-3.76 1.6-1.653 2.96-4.213 4.08-7.68h3.36c-.8 2.667-1.76 4.88-2.88 6.64-1.067 1.76-2.24 3.2-3.52 4.32-1.28 1.12-2.587 2-3.92 2.64a25.585 25.585 0 0 1-3.84 1.36l-1.2 5.76c-.587 2.88-1.44 5.2-2.56 6.96-1.067 1.76-2.267 3.12-3.6 4.08-1.28 1.013-2.64 1.68-4.08 2-1.44.373-2.827.56-4.16.56-2.453 0-4.56-.64-6.32-1.92-1.76-1.28-2.64-3.227-2.64-5.84 0-1.653.4-3.12 1.2-4.4.8-1.28 1.813-2.4 3.04-3.36a22.082 22.082 0 0 1 4.24-2.48c1.547-.64 3.067-1.2 4.56-1.68l1.52-6.8c-1.173 1.44-2.587 2.693-4.24 3.76-1.6 1.067-3.573 1.6-5.92 1.6-1.387 0-2.72-.213-4-.64-1.227-.48-2.347-1.227-3.36-2.24-1.013-1.013-1.813-2.32-2.4-3.92-.587-1.653-.88-3.68-.88-6.08 0-1.707.187-3.52.56-5.44a35.146 35.146 0 0 1 1.68-5.92 33.057 33.057 0 0 1 2.8-5.68 21.76 21.76 0 0 1 4-4.8 18.612 18.612 0 0 1 5.12-3.28c1.92-.853 4.053-1.28 6.4-1.28.64 0 1.307.053 2 .16.747.053 1.413.24 2 .56.64.267 1.173.667 1.6 1.2.48.533.8 1.28.96 2.24l.8-3.76h11.52Zm-16.4 4.56c-1.707 0-3.253.747-4.64 2.24-1.387 1.44-2.56 3.2-3.52 5.28a33.503 33.503 0 0 0-2.24 6.64c-.533 2.347-.8 4.4-.8 6.16 0 1.547.133 2.747.4 3.6.32.8.667 1.413 1.04 1.84.427.373.853.613 1.28.72.48.053.907.08 1.28.08 1.173 0 2.48-.587 3.92-1.76 1.493-1.173 2.507-2.933 3.04-5.28l3.52-16.56c-.053-.48-.32-1.093-.8-1.84-.427-.747-1.253-1.12-2.48-1.12Zm-12.4 46.56c0 .587.213 1.173.64 1.76.48.587 1.173.88 2.08.88.853 0 1.707-.587 2.56-1.76s1.547-2.96 2.08-5.36l.48-2.32c-1.013.373-2 .773-2.96 1.2-.96.48-1.813.987-2.56 1.52-.693.587-1.253 1.2-1.68 1.84a4.194 4.194 0 0 0-.64 2.24Zm41.747-24.08c0 2.72.48 4.533 1.44 5.44.96.853 2.4 1.28 4.32 1.28 1.6 0 3.04-.213 4.32-.64 1.28-.427 2.48-.987 3.6-1.68 1.12-.747 2.186-1.6 3.2-2.56a88.99 88.99 0 0 0 3.04-3.2h2.72a45.794 45.794 0 0 1-3.84 5.44 29.23 29.23 0 0 1-4.88 4.72 24.458 24.458 0 0 1-6 3.36c-2.187.853-4.614 1.28-7.28 1.28-3.787 0-6.827-.987-9.12-2.96-2.24-1.973-3.36-5.227-3.36-9.76 0-1.547.16-3.307.48-5.28.32-1.973.8-4 1.44-6.08.693-2.08 1.6-4.107 2.72-6.08a24.202 24.202 0 0 1 4.08-5.44c1.6-1.6 3.466-2.88 5.6-3.84 2.133-.96 4.56-1.44 7.28-1.44 1.76 0 3.2.213 4.32.64 1.173.427 2.08 1.013 2.72 1.76.693.693 1.146 1.493 1.36 2.4.266.907.4 1.867.4 2.88 0 2.24-.507 4.347-1.52 6.32a17.478 17.478 0 0 1-4.08 5.2c-1.707 1.44-3.68 2.613-5.92 3.52a23.035 23.035 0 0 1-6.88 1.52c-.054.587-.107 1.147-.16 1.68v1.52Zm12.4-19.92c0-1.013-.16-1.813-.48-2.4-.267-.587-.774-.88-1.52-.88-1.014 0-2 .48-2.96 1.44s-1.867 2.213-2.72 3.76c-.854 1.493-1.627 3.2-2.32 5.12a55.475 55.475 0 0 0-1.6 5.84 10.746 10.746 0 0 0 4.4-1.28 13.329 13.329 0 0 0 3.76-2.88 12.932 12.932 0 0 0 2.48-4c.64-1.547.96-3.12.96-4.72ZM254.492 78l-1.12 5.04c1.547-1.493 3.147-2.773 4.8-3.84 1.707-1.067 3.36-1.6 4.96-1.6 1.813 0 3.173.613 4.08 1.84.96 1.227 1.44 2.613 1.44 4.16 0 .693-.133 1.387-.4 2.08a5.619 5.619 0 0 1-1.04 1.92c-.48.533-1.093.987-1.84 1.36-.693.32-1.52.48-2.48.48-1.12 0-1.893-.267-2.32-.8a5.4 5.4 0 0 1-.8-1.68c-.16-.64-.32-1.227-.48-1.76-.107-.533-.453-.8-1.04-.8-1.013 0-1.973.293-2.88.88-.907.587-1.893 1.36-2.96 2.32l-6.4 30.4h-11.52l8.48-40h11.52Zm45.746 19.44c-1.44 0-2.614.267-3.52.8-.907.48-1.627 1.093-2.16 1.84a6.954 6.954 0 0 0-1.12 2.48c-.16.853-.24 1.68-.24 2.48 0 1.547.186 2.8.56 3.76.426.907.96 1.6 1.6 2.08.693.48 1.44.8 2.24.96.853.16 1.68.24 2.48.24 1.6 0 3.013-.4 4.24-1.2 1.28-.8 2.373-1.84 3.28-3.12.906-1.333 1.6-2.853 2.08-4.56.48-1.707.72-3.44.72-5.2 0-1.6-.214-3.147-.64-4.64a11.505 11.505 0 0 0-1.92-4.08 10.196 10.196 0 0 0-3.281-3.12c-1.333-.853-2.933-1.387-4.799-1.6 2.24-.64 4.213-1.52 5.92-2.64 1.706-1.12 3.12-2.347 4.24-3.68 1.173-1.387 2.053-2.827 2.64-4.32.586-1.547.88-3.013.88-4.4 0-1.867-.507-3.44-1.52-4.72-1.014-1.28-2.534-1.92-4.56-1.92-1.92 0-3.467.507-4.64 1.52-1.12.96-1.68 2.373-1.68 4.24 0 1.067.213 2.213.64 3.44.48 1.173 1.28 1.92 2.4 2.24-1.014.907-2.054 1.6-3.12 2.08-1.014.427-2 .64-2.96.64-1.6 0-2.96-.587-4.08-1.76s-1.68-2.853-1.68-5.04c0-1.813.426-3.467 1.28-4.96.853-1.493 2.026-2.773 3.52-3.84 1.493-1.067 3.226-1.893 5.2-2.48 2.026-.587 4.213-.88 6.56-.88 2.453 0 4.613.32 6.48.96 1.866.64 3.413 1.493 4.64 2.56a10.701 10.701 0 0 1 2.8 3.76c.64 1.387.96 2.853.96 4.4 0 2.667-.907 5.36-2.72 8.08-1.814 2.667-4.56 4.933-8.24 6.8 3.52 1.227 6.08 3.12 7.68 5.68 1.6 2.56 2.4 5.333 2.4 8.32 0 2.347-.534 4.693-1.6 7.04-1.067 2.347-2.587 4.48-4.56 6.4-1.974 1.867-4.347 3.413-7.12 4.64-2.774 1.173-5.867 1.76-9.28 1.76-1.174 0-2.667-.133-4.48-.4-1.76-.267-3.494-.853-5.2-1.76-1.707-.96-3.174-2.347-4.4-4.16-1.227-1.813-1.84-4.267-1.84-7.36 0-3.36.8-6.107 2.4-8.24 1.653-2.133 4.08-3.2 7.279-3.2 1.494 0 2.827.293 4.001.88 1.173.587 1.92 1.653 2.24 3.2Z"/></svg>